<svg width="77" height="39" viewBox="0 0 77 39" fill="none" xmlns="http://www.w3.org/2000/svg">
<rect x="1" y="1" width="75" height="37" rx="8" fill="#AA1070" stroke="#F8EBFD" stroke-width="2"/>
<rect x="2" y="2" width="73" height="34" rx="8" fill="#CD3F97"/>
<path d="M27.6758 26.0493C27.4414 26.0493 27.2493 26.0005 27.0996 25.9028C26.9499 25.8052 26.8294 25.6685 26.7383 25.4927C26.6536 25.3104 26.5918 25.0988 26.5527 24.8579C26.5137 24.617 26.4876 24.3566 26.4746 24.0767C26.4616 23.7902 26.4583 23.4875 26.4648 23.1685C26.4714 22.8494 26.4746 22.5272 26.4746 22.2017C26.4746 21.6808 26.4941 21.1209 26.5332 20.522C26.5723 19.923 26.6146 19.311 26.6602 18.686C26.7122 18.061 26.7578 17.436 26.7969 16.811C26.8359 16.1795 26.8555 15.5773 26.8555 15.0044C26.8555 14.9067 26.8294 14.8091 26.7773 14.7114C26.7318 14.6073 26.6764 14.5031 26.6113 14.3989C26.5527 14.2882 26.4974 14.1776 26.4453 14.0669C26.3997 13.9497 26.377 13.826 26.377 13.6958C26.377 13.5786 26.4095 13.4582 26.4746 13.3345C26.5462 13.2108 26.6341 13.1001 26.7383 13.0024C26.849 12.8983 26.9629 12.8169 27.0801 12.7583C27.2038 12.6932 27.321 12.6606 27.4316 12.6606C27.4967 12.6606 27.5944 12.6802 27.7246 12.7192C27.8613 12.7518 27.9948 12.8104 28.125 12.895C28.2552 12.9731 28.3691 13.0773 28.4668 13.2075C28.571 13.3377 28.623 13.5005 28.623 13.6958C28.623 14.425 28.6035 15.1867 28.5645 15.981C28.5254 16.7687 28.4831 17.55 28.4375 18.3247C28.3919 19.0994 28.3496 19.8481 28.3105 20.5708C28.2715 21.2869 28.252 21.938 28.252 22.5239C28.252 22.7192 28.265 22.9276 28.291 23.1489C28.3171 23.3638 28.3431 23.5884 28.3691 23.8228C28.4017 24.0506 28.431 24.2817 28.457 24.5161C28.4831 24.7505 28.4961 24.9849 28.4961 25.2192C28.4961 25.4471 28.4212 25.6424 28.2715 25.8052C28.1283 25.9679 27.9297 26.0493 27.6758 26.0493Z" fill="white"/>
<rect x="49" y="2" width="1" height="35" rx="0.5" fill="#ED75C0"/>
<rect x="50" y="2" width="1" height="35" rx="0.5" fill="#AA1070"/>
<path d="M62.0266 21.008C62.0579 20.9615 62.0932 20.9173 62.1322 20.8759C63.4786 19.639 64.8263 18.4029 66.1753 17.1674C66.2998 17.053 66.4361 16.9804 66.6164 17.0047C66.6949 17.0162 66.7688 17.0463 66.8306 17.0921C66.8925 17.1378 66.9402 17.1976 66.969 17.2654C66.9978 17.3333 67.0068 17.4069 66.9949 17.4789C66.9831 17.5509 66.9509 17.6188 66.9015 17.6759C66.8681 17.7127 66.8323 17.7475 66.7941 17.7802L62.3956 21.8082C62.1158 22.0649 61.8865 22.0638 61.6049 21.8058C60.1319 20.4567 58.6586 19.1079 57.1851 17.7593C57.0564 17.6418 56.9748 17.5131 57.0071 17.342C57.0212 17.2714 57.055 17.2054 57.1051 17.1502C57.1553 17.0951 57.2201 17.0527 57.2934 17.0273C57.3666 17.0018 57.4458 16.994 57.5232 17.0047C57.6007 17.0155 57.6738 17.0443 57.7356 17.0885C57.7789 17.1222 57.8199 17.1582 57.8586 17.1963L61.8858 20.886C61.9218 20.919 61.9598 20.9503 62.0266 21.008Z" fill="white"/>
</svg>
